<?xml version="1.0" standalone="no"?>
<!DOCTYPE svg PUBLIC "-//W3C//DTD SVG 20010904//EN"
 "http://www.w3.org/TR/2001/REC-SVG-20010904/DTD/svg10.dtd">
<svg version="1.0" xmlns="http://www.w3.org/2000/svg"
 width="4096.000000pt" height="4096.000000pt" viewBox="0 0 4096.000000 4096.000000"
 preserveAspectRatio="xMidYMid meet">
<metadata>
Created by potrace 1.16, written by Peter Selinger 2001-2019
</metadata>
<g transform="translate(0.000000,4096.000000) scale(0.100000,-0.100000)"
fill="#000000" stroke="none">
<path d="M17503 24423 c-13 -2 -23 -9 -23 -14 0 -5 -11 -15 -25 -21 -19 -8
-25 -19 -25 -42 0 -20 -7 -36 -20 -44 -20 -12 -20 -23 -20 -4098 0 -4071 0
-4085 20 -4106 11 -12 20 -30 20 -41 0 -29 20 -42 93 -60 97 -25 204 -32 252
-17 30 9 314 13 1190 15 978 3 1173 6 1305 20 85 9 173 22 195 30 22 7 67 16
100 20 108 11 135 17 148 29 6 7 54 17 105 23 59 6 99 16 110 27 10 9 31 16
47 16 38 0 105 20 136 41 14 10 50 21 80 25 30 4 61 14 71 24 9 10 37 21 62
24 26 4 54 15 64 25 9 10 33 22 52 26 19 4 40 12 47 17 22 17 84 47 114 53 16
4 29 13 29 20 0 8 16 17 38 21 20 3 42 12 47 19 6 7 30 23 54 36 23 12 45 28
48 35 2 7 18 16 34 19 16 4 34 15 39 25 6 11 26 22 45 26 19 3 35 10 35 16 0
5 15 15 33 23 17 8 45 28 60 44 16 17 35 31 42 31 8 0 19 8 24 19 6 10 22 22
36 25 14 4 25 13 25 21 0 7 9 16 19 20 10 3 34 21 52 40 19 19 39 35 46 35 6
0 14 9 18 19 3 10 19 24 35 31 17 7 30 19 30 26 0 7 11 21 25 30 13 9 27 24
30 34 3 10 15 20 25 23 11 3 20 12 20 20 0 8 14 20 30 27 17 7 30 19 30 26 0
7 11 21 25 30 14 9 25 21 25 27 0 5 10 20 23 32 12 13 38 42 57 65 19 23 45
52 58 65 12 12 22 27 22 34 0 6 11 21 25 33 14 12 25 28 25 35 0 7 5 13 10 13
6 0 10 6 10 13 0 6 11 25 25 41 14 16 25 37 25 46 0 10 9 20 19 23 13 3 22 17
26 41 4 20 13 36 20 36 8 0 17 9 20 20 3 11 11 20 16 20 5 0 9 6 9 13 0 7 9
23 20 34 10 12 22 34 26 50 4 15 15 36 25 45 9 9 20 31 24 48 4 16 10 30 14
30 11 0 31 47 31 70 0 11 5 20 10 20 6 0 10 11 10 24 0 15 7 27 19 31 13 4 21
19 26 50 4 28 13 49 24 55 13 6 21 26 26 66 4 34 14 63 26 75 10 10 19 33 19
49 0 17 5 30 10 30 6 0 10 11 10 25 0 31 22 105 32 105 4 0 10 32 14 70 4 45
12 73 21 79 9 4 19 38 26 82 6 41 14 76 18 79 16 11 29 64 29 121 0 33 4 59
10 59 6 0 10 31 10 74 0 41 5 78 10 81 6 3 10 26 10 50 0 26 5 45 13 48 9 3
12 206 12 972 0 766 -3 969 -12 973 -7 2 -13 19 -13 37 0 19 -4 37 -10 40 -5
3 -10 42 -10 86 0 46 -4 79 -10 79 -5 0 -10 23 -10 50 0 44 -13 85 -31 100 -3
3 -9 38 -13 79 -9 85 -13 101 -31 101 -8 0 -15 24 -20 72 -4 47 -12 76 -22 83
-9 7 -18 33 -21 63 -2 29 -8 52 -13 52 -5 0 -9 13 -9 29 0 39 -9 61 -26 61 -8
0 -14 10 -14 26 0 36 -21 114 -30 114 -5 0 -14 17 -21 38 -7 20 -20 43 -31 50
-10 7 -18 22 -18 33 0 10 -4 19 -8 19 -4 0 -13 21 -20 46 -7 25 -19 53 -27 61
-8 8 -15 27 -15 43 0 19 -7 33 -19 40 -11 5 -22 24 -26 41 -4 17 -14 39 -24
49 -33 37 -40 49 -46 73 -4 14 -15 27 -26 30 -11 3 -19 14 -19 25 0 11 -8 22
-18 25 -11 2 -22 17 -25 35 -4 17 -14 40 -24 51 -33 36 -40 47 -46 74 -4 14
-16 31 -27 37 -11 6 -20 16 -20 23 0 7 -12 23 -25 36 -14 13 -25 28 -25 35 0
6 -13 17 -29 24 -16 7 -31 22 -34 32 -3 11 -12 20 -20 20 -8 0 -18 12 -22 27
-6 27 -68 93 -86 93 -5 0 -9 4 -9 10 0 13 -86 100 -99 100 -6 0 -11 7 -11 15
0 8 -10 20 -22 26 -13 7 -35 25 -50 41 -14 15 -31 28 -36 28 -6 0 -13 8 -16
18 -3 9 -19 23 -36 30 -16 8 -30 20 -30 28 0 8 -4 14 -9 14 -7 0 -31 19 -81
64 -8 7 -25 17 -37 20 -13 4 -23 11 -23 16 0 5 -10 12 -22 16 -13 3 -30 13
-38 20 -8 7 -24 21 -35 31 -12 11 -35 25 -53 32 -18 7 -32 17 -32 22 0 5 -7 9
-15 9 -8 0 -15 5 -15 10 0 6 -7 10 -15 10 -8 0 -15 4 -15 8 0 5 -12 15 -27 23
-16 8 -34 20 -41 26 -7 7 -25 16 -40 20 -14 3 -35 15 -46 25 -11 10 -28 18
-38 18 -10 0 -18 5 -18 10 0 6 -8 10 -18 10 -11 0 -29 8 -41 19 -11 10 -39 21
-61 25 -23 3 -43 13 -46 20 -3 8 -16 17 -30 20 -13 4 -24 10 -24 15 0 5 -13
12 -30 16 -16 4 -32 11 -35 16 -4 5 -19 9 -36 9 -16 0 -29 5 -29 10 0 6 -13
10 -29 10 -16 0 -37 7 -46 16 -9 9 -53 23 -98 31 -45 7 -84 19 -88 25 -4 6
-30 13 -58 16 -28 2 -51 8 -51 12 0 5 -19 10 -42 13 -56 6 -162 30 -168 38 -3
3 -27 9 -54 13 -28 3 -53 11 -57 18 -4 6 -69 16 -159 23 -107 9 -155 17 -161
26 -7 12 -234 14 -1366 16 -747 1 -1368 -1 -1380 -4z m2467 -92 c0 -5 71 -11
158 -14 182 -5 432 -27 432 -37 0 -4 31 -10 69 -14 38 -4 71 -11 73 -16 2 -5
50 -16 108 -25 57 -9 107 -19 110 -24 3 -5 24 -12 48 -16 23 -4 42 -10 42 -14
0 -4 36 -16 80 -26 44 -10 80 -22 80 -26 0 -4 17 -10 37 -14 21 -4 40 -10 43
-13 7 -9 104 -42 124 -42 9 0 16 -4 16 -10 0 -5 11 -12 25 -16 14 -3 25 -10
25 -14 0 -4 20 -14 45 -21 25 -7 45 -16 45 -20 0 -3 18 -12 40 -19 22 -7 40
-16 40 -20 0 -3 16 -12 35 -19 19 -7 35 -17 35 -22 0 -5 7 -9 15 -9 8 0 24 -9
35 -20 11 -11 31 -22 46 -26 14 -4 28 -12 31 -20 2 -7 18 -16 35 -19 16 -4 32
-13 34 -20 3 -7 20 -19 37 -26 18 -7 38 -21 45 -31 7 -10 17 -18 23 -18 5 0
18 -8 28 -17 44 -41 73 -63 84 -63 7 0 18 -9 25 -20 7 -11 17 -20 22 -20 6 0
24 -13 40 -30 16 -16 33 -30 37 -30 3 0 42 -36 85 -80 44 -44 83 -80 88 -80 5
0 12 -9 15 -20 3 -11 12 -20 20 -20 8 0 16 -9 20 -19 3 -11 19 -26 35 -33 17
-7 30 -18 30 -24 0 -6 20 -32 45 -56 25 -25 45 -49 45 -53 0 -4 16 -22 35 -41
19 -18 35 -37 35 -42 0 -4 11 -18 25 -30 13 -12 27 -33 31 -47 3 -14 12 -25
20 -25 8 0 14 -7 14 -15 0 -9 6 -18 13 -21 8 -3 20 -20 27 -39 8 -19 18 -35
22 -35 5 0 13 -11 18 -25 5 -14 13 -25 18 -25 4 0 14 -16 21 -35 7 -19 16 -35
20 -35 5 0 14 -13 21 -30 7 -16 15 -30 19 -30 3 0 12 -15 20 -32 8 -18 17 -35
20 -38 12 -10 31 -50 31 -65 0 -8 3 -15 8 -15 8 0 32 -48 32 -66 0 -6 6 -14
14 -17 7 -3 16 -22 20 -41 4 -20 11 -36 15 -36 5 0 15 -20 22 -45 7 -25 16
-45 20 -45 4 0 12 -22 19 -50 7 -27 16 -50 20 -50 5 0 11 -18 15 -40 4 -22 13
-46 20 -53 7 -7 18 -39 25 -70 7 -31 17 -57 22 -57 4 0 8 -13 8 -29 0 -17 5
-33 10 -36 6 -3 10 -22 10 -41 0 -19 4 -34 9 -34 8 0 12 -15 27 -117 4 -24 10
-43 14 -43 7 0 30 -113 30 -153 0 -14 4 -27 10 -29 5 -1 15 -55 22 -118 6 -63
16 -118 21 -121 4 -3 13 -91 19 -195 7 -109 16 -192 22 -196 15 -10 15 -1256
0 -1266 -6 -4 -15 -84 -21 -191 -6 -101 -15 -186 -20 -190 -5 -3 -14 -58 -20
-121 -6 -64 -16 -116 -22 -118 -6 -2 -11 -17 -11 -34 0 -40 -22 -162 -30 -168
-4 -3 -13 -40 -20 -82 -8 -43 -17 -78 -21 -78 -6 0 -9 -13 -25 -102 -3 -21
-10 -38 -14 -38 -5 0 -14 -26 -21 -57 -7 -32 -18 -63 -25 -70 -6 -7 -15 -29
-19 -49 -3 -20 -13 -43 -21 -51 -8 -8 -14 -25 -14 -38 0 -13 -6 -30 -14 -38
-8 -8 -19 -33 -26 -55 -6 -23 -15 -42 -20 -42 -5 0 -12 -16 -16 -36 -4 -19
-12 -38 -19 -40 -7 -3 -15 -18 -18 -33 -3 -16 -13 -36 -22 -44 -8 -9 -15 -20
-15 -26 0 -11 -20 -51 -30 -61 -3 -3 -12 -18 -20 -35 -8 -16 -21 -36 -27 -43
-7 -7 -16 -24 -19 -38 -3 -13 -10 -24 -16 -24 -5 0 -14 -13 -19 -30 -6 -16
-14 -30 -19 -30 -4 0 -13 -13 -20 -30 -7 -16 -16 -30 -20 -30 -4 0 -13 -13
-20 -30 -7 -16 -16 -30 -21 -30 -4 0 -11 -9 -14 -20 -3 -11 -13 -20 -21 -20
-8 0 -14 -6 -14 -12 0 -13 -22 -44 -66 -94 -11 -13 -29 -35 -40 -50 -10 -15
-46 -55 -79 -89 -33 -34 -71 -76 -84 -93 -13 -18 -27 -32 -32 -32 -4 0 -43
-36 -87 -80 -44 -44 -85 -80 -91 -80 -6 0 -11 -7 -11 -15 0 -8 -6 -15 -14 -15
-8 0 -21 -8 -28 -18 -16 -21 -173 -141 -196 -150 -10 -3 -23 -14 -30 -24 -7
-10 -20 -18 -28 -18 -8 0 -14 -5 -14 -11 0 -5 -13 -15 -30 -20 -16 -6 -30 -15
-30 -19 0 -5 -16 -14 -35 -20 -19 -6 -35 -16 -35 -21 0 -6 -15 -16 -34 -24
-19 -8 -37 -19 -40 -24 -4 -5 -19 -12 -35 -16 -16 -3 -35 -13 -41 -20 -13 -15
-130 -75 -147 -75 -6 0 -16 -7 -23 -15 -7 -8 -23 -15 -35 -15 -12 0 -28 -6
-34 -14 -7 -8 -26 -18 -44 -22 -17 -3 -37 -13 -45 -20 -7 -8 -31 -17 -53 -20
-21 -4 -39 -10 -39 -14 0 -5 -24 -14 -52 -20 -29 -7 -62 -17 -73 -23 -32 -16
-278 -80 -395 -103 -41 -7 -86 -18 -100 -23 -14 -5 -70 -15 -125 -21 -55 -6
-119 -16 -143 -21 -110 -24 -446 -30 -1620 -30 -678 0 -1237 3 -1243 6 -10 7
-13 8232 -3 8259 6 14 125 16 1250 16 726 0 1244 -4 1244 -9z"/>
<path d="M18581 23411 c-15 -27 -15 -6398 -1 -6436 l10 -27 743 5 c604 4 756
8 817 20 41 8 109 18 150 22 41 4 86 12 100 17 14 6 57 16 95 24 89 17 198 47
205 56 3 3 34 14 70 23 36 9 70 20 75 25 6 4 24 11 42 14 17 4 37 14 44 22 6
8 17 14 23 14 26 0 286 143 294 162 2 4 10 8 18 8 8 0 14 5 14 10 0 6 4 10 10
10 42 0 398 332 440 409 6 12 24 35 40 51 17 17 30 35 30 40 0 5 11 22 25 37
42 47 44 51 62 87 9 20 20 36 25 36 4 0 8 6 8 14 0 8 6 21 14 29 8 8 21 31 30
51 8 20 22 44 31 52 8 9 15 22 15 30 0 8 4 14 8 14 5 0 17 27 27 60 10 33 22
60 26 60 4 0 11 10 15 23 4 12 10 24 13 27 8 6 41 107 41 126 0 8 4 14 10 14
5 0 12 17 16 37 4 21 13 43 19 50 7 6 16 32 19 58 4 25 11 45 16 45 4 0 14 33
20 73 7 39 16 74 21 77 5 3 14 41 20 83 6 42 15 77 19 77 4 0 13 52 20 115 7
63 15 115 19 115 9 0 31 297 31 408 0 48 4 82 10 82 7 0 10 152 10 435 0 283
-3 435 -10 435 -6 0 -10 39 -10 98 0 125 -22 425 -31 432 -5 3 -13 56 -20 118
-7 61 -16 112 -19 112 -4 0 -13 37 -20 82 -6 46 -16 85 -20 88 -5 3 -14 37
-20 75 -6 38 -15 72 -19 75 -4 3 -14 29 -21 58 -6 28 -15 52 -20 52 -4 0 -10
18 -14 40 -3 22 -11 40 -16 40 -6 0 -10 6 -10 14 0 24 -33 116 -42 116 -4 0
-8 9 -8 20 0 10 -6 23 -13 27 -7 4 -21 34 -30 66 -10 31 -22 57 -27 57 -4 0
-11 14 -15 30 -4 17 -10 30 -14 30 -5 0 -16 18 -26 40 -10 22 -22 40 -26 40
-5 0 -11 11 -15 24 -3 14 -12 27 -19 30 -7 2 -16 18 -20 35 -4 17 -15 36 -26
41 -10 6 -19 15 -19 20 0 5 -11 21 -25 36 -14 15 -25 32 -25 39 0 6 -11 18
-25 25 -14 7 -25 19 -25 26 0 7 -29 42 -65 78 -36 36 -65 68 -65 72 0 10 -88
94 -99 94 -6 0 -18 11 -27 25 -9 14 -26 28 -38 31 -12 3 -30 18 -41 34 -11 17
-25 30 -32 30 -7 0 -24 11 -39 25 -15 14 -38 28 -51 31 -13 4 -23 10 -23 15 0
5 -12 15 -27 22 -30 13 -43 22 -74 50 -10 9 -27 17 -37 17 -10 0 -28 9 -40 20
-12 11 -30 20 -41 20 -11 0 -23 5 -26 10 -3 6 -15 10 -26 10 -10 0 -19 4 -19
9 0 5 -20 15 -45 22 -25 7 -45 17 -45 20 0 4 -25 13 -55 20 -30 7 -55 15 -55
19 0 4 -27 13 -60 20 -33 7 -60 16 -60 20 0 4 -37 13 -82 20 -46 6 -85 16 -88
20 -3 5 -57 14 -120 21 -63 7 -118 17 -122 23 -5 8 -254 12 -827 14 -810 3
-820 3 -830 -17z m1817 -1557 c4 -6 44 -17 90 -24 45 -7 82 -16 82 -20 0 -4
25 -13 55 -20 30 -7 55 -17 55 -21 0 -5 18 -14 40 -20 22 -7 40 -16 40 -20 0
-4 14 -12 30 -18 17 -5 30 -14 30 -19 0 -6 12 -13 27 -17 15 -3 37 -16 48 -28
12 -12 34 -31 50 -42 16 -11 38 -31 49 -44 12 -13 29 -31 40 -40 32 -27 66
-65 66 -74 0 -4 11 -18 24 -30 13 -12 31 -38 41 -57 10 -18 24 -40 31 -48 8
-7 14 -19 14 -27 0 -7 6 -15 13 -18 7 -2 19 -28 26 -56 7 -28 17 -51 22 -51 5
0 9 -9 9 -19 0 -11 6 -26 14 -33 14 -14 46 -154 46 -201 0 -15 4 -27 9 -27 5
0 12 -38 16 -85 4 -47 11 -85 16 -85 5 0 9 -98 9 -230 0 -128 -4 -230 -9 -230
-5 0 -12 -40 -16 -90 -4 -49 -11 -90 -16 -90 -5 0 -9 -12 -9 -27 0 -45 -33
-187 -47 -201 -7 -7 -13 -22 -13 -33 0 -10 -4 -19 -8 -19 -4 0 -16 -25 -27
-55 -10 -30 -22 -55 -27 -55 -4 0 -8 -6 -8 -14 0 -8 -6 -21 -14 -28 -7 -8 -21
-30 -31 -48 -10 -19 -28 -44 -40 -55 -11 -11 -30 -35 -40 -53 -11 -18 -22 -32
-26 -32 -3 0 -28 -22 -55 -50 -27 -27 -52 -50 -56 -50 -5 0 -16 -8 -26 -17
-10 -10 -27 -24 -38 -30 -10 -7 -35 -23 -54 -36 -34 -22 -87 -49 -192 -96 -26
-11 -59 -21 -72 -21 -14 0 -27 -4 -30 -9 -3 -4 -31 -13 -63 -19 -32 -6 -87
-16 -123 -23 -43 -8 -215 -14 -510 -16 -416 -4 -445 -3 -457 13 -10 14 -13
285 -13 1389 0 755 3 1375 8 1379 12 13 1012 3 1020 -10z"/>
<path d="M19752 20474 l3 -1079 170 -3 c179 -3 423 13 440 29 5 5 21 9 37 9
42 0 224 83 246 112 7 10 17 18 23 18 10 0 91 81 124 124 11 14 28 35 37 47
10 12 20 30 23 40 4 11 10 19 15 19 5 0 15 18 21 40 7 22 16 40 20 40 5 0 12
18 15 41 4 22 12 46 19 52 7 7 15 35 20 62 4 28 11 53 17 56 5 3 14 92 20 196
12 204 0 590 -20 602 -5 3 -13 30 -17 59 -4 28 -11 52 -15 52 -5 0 -14 25 -20
55 -6 30 -15 55 -20 55 -5 0 -15 18 -21 40 -7 22 -16 40 -20 40 -4 0 -11 9
-14 21 -4 11 -22 36 -41 56 -19 19 -34 38 -34 42 0 12 -65 76 -93 90 -15 8
-27 18 -27 21 0 4 -13 13 -30 20 -16 7 -30 16 -30 20 0 4 -18 12 -40 19 -22 6
-40 15 -40 20 0 4 -26 14 -57 21 -32 7 -61 17 -65 24 -5 8 -104 12 -328 15
l-320 3 2 -1078z"/>
</g>
</svg>
